<svg xmlns="http://www.w3.org/2000/svg" width="61" height="61" viewBox="0 0 61 61"><defs><style>.a,.b,.c,.g{fill:none;}.a,.b,.c,.d{stroke:#5e6583;}.a,.b{stroke-linecap:round;}.a{stroke-linejoin:round;}.b{stroke-miterlimit:10;}.d,.e{fill:#fff;}.f,.h{stroke:none;}.h{fill:#5e6583;}</style></defs><g transform="translate(-689 -3253.5)"><g transform="translate(7.112 -162.891)"><g transform="translate(689.888 3425.079)"><g transform="translate(0 21.336)"><g transform="translate(0 0)"><path class="a" d="M74.236,58.28l-6.179.043h0a8.393,8.393,0,0,1-5.724-2.177l-8-7.342a3.561,3.561,0,0,0-4.725,0l-.909.811a6.37,6.37,0,0,1-6.361,1.153h0a.745.745,0,0,1-.318-.171h0a.807.807,0,0,1-.045-1.238l5.452-5.336a8.342,8.342,0,0,1,8.132-2.049L67.83,45.389a8.406,8.406,0,0,0,2.317.3H74.1Z" transform="translate(-31.098 -41.658)"/><line class="b" x1="0.045" y1="12.592" transform="translate(37.958 4.073)"/><path class="a" d="M28.7,71.6l10.041,9.305a3.637,3.637,0,0,0,3.589.726l1.636-.555a.534.534,0,0,0,.363-.683c-.045-.085-.091-.128-.136-.213l-3.18-2.945" transform="translate(-23.248 -58.819)"/><line class="b" x1="18.586" transform="translate(0 0.744)"/><path class="a" d="M63.162,82.2l3.544,3.244a.518.518,0,0,1,0,.768c-.045.043-.136.085-.182.128l-2.044.811a2.265,2.265,0,0,1-2.317-.427L60.8,85.487" transform="translate(-41.162 -64.895)"/><path class="a" d="M73.245,76l5.406,4.951a.518.518,0,0,1,0,.768.625.625,0,0,1-.182.128l-2.59,1.067a2.114,2.114,0,0,1-2.317-.427h0L72.2,81.208" transform="translate(-47.492 -61.341)"/><path class="a" d="M86.254,77.2l3.5,3.2a1.075,1.075,0,0,1,.045,1.537,2.51,2.51,0,0,1-.363.256l-1.181.427a2.264,2.264,0,0,1-2.408-.427h0L84.3,80.786" transform="translate(-54.192 -62.029)"/><path class="a" d="M16.7,43.4h3.907a2.113,2.113,0,0,1,2.181,2.006l.045,8.58A2.106,2.106,0,0,1,20.7,56.035H16.791V43.4" transform="translate(-16.7 -42.656)"/></g></g><ellipse class="c" cx="8.566" cy="8.566" rx="8.566" ry="8.566" transform="translate(13.552)"/></g><g transform="translate(704.965 3424.363)"><g class="d" transform="translate(7.131 13.074) rotate(-135)"><rect class="f" width="5.883" height="12.607"/><rect class="g" x="0.5" y="0.5" width="4.883" height="11.607"/></g><g class="e" transform="translate(4.16 16.046) rotate(-135)"><path class="f" d="M 5.012641429901123 4.542717933654785 L 0.8705228567123413 4.542717933654785 L 2.941582202911377 0.9923223257064819 L 5.012641429901123 4.542717933654785 Z"/><path class="h" d="M 2.941582202911377 1.984636783599854 L 1.741037845611572 4.042717933654785 L 4.142126560211182 4.042717933654785 L 2.941582202911377 1.984636783599854 M 2.941582202911377 -2.384185791015625e-06 L 5.883162021636963 5.042717933654785 L 2.384185791015625e-06 5.042717933654785 L 2.941582202911377 -2.384185791015625e-06 Z"/></g></g></g><rect class="a" width="60" height="60" rx="5" transform="translate(689.5 3254)"/></g></svg>