<svg xmlns="http://www.w3.org/2000/svg" width="38.678" height="41.008" viewBox="0 0 38.678 41.008"><defs><style>.a{fill:none;}.a,.b{stroke:#5e6583;stroke-linecap:round;stroke-linejoin:round;}.b{fill:#fff;}</style></defs><g transform="translate(-691.373 -1019.492)"><g transform="translate(692 1020)"><path class="a" d="M77.949,91.944c-1.486-7.733-6.508-6.768-5.819-14.917.72-8.517,10.316-8.4,10.316-8.4s9.6-.12,10.316,8.4c.689,8.15-4.333,7.185-5.819,14.917Z" transform="translate(-63.218 -60.094)"/><rect class="b" width="9.191" height="2.814" transform="translate(14.724 34.542)"/><rect class="b" width="9.191" height="2.813" transform="translate(14.724 31.729)"/><path class="b" d="M87.755,147.381l1.927,2.644h5.336l1.927-2.644Z" transform="translate(-73.03 -110.026)"/><path class="b" d="M65.141,51.775a16.61,16.61,0,0,1,23.4-2.045" transform="translate(-58.887 -45.842)"/><path class="b" d="M57.445,94.157a16.61,16.61,0,0,1-3.668-23.2" transform="translate(-49.792 -61.548)"/><path class="a" d="M48.445,71.381l4.017-1.257,1.4,4.466" transform="translate(-48.445 -61.029)"/><path class="b" d="M135.139,66.484a16.61,16.61,0,0,1-1.478,23.444" transform="translate(-101.742 -58.752)"/><path class="a" d="M136.939,121.727l-4.195.351-.39-4.663" transform="translate(-100.924 -90.606)"/><path class="a" d="M121.128,46.173l.617,4.454-4.294.429" transform="translate(-91.603 -46.049)"/></g></g></svg>