<svg xmlns="http://www.w3.org/2000/svg" width="47.1" height="47.1" viewBox="0 0 47.1 47.1"><defs><style>.a{fill:none;stroke-linejoin:round;}.a,.b{stroke:#5e6583;}.b{fill:#fff;}</style></defs><g transform="translate(-199.5 -2558.5)"><g transform="translate(200 2559)"><circle class="a" cx="14.03" cy="14.03" r="14.03" transform="translate(9.02 9.02)"/><line class="a" y1="7.015" transform="translate(23.05 0)"/><path class="a" d="M236.017,293.009,232.009,289,228,293.009" transform="translate(-208.959 -289)"/><line class="a" y2="7.015" transform="translate(23.05 39.085)"/><path class="a" d="M236.017,331l-4.009,4.009L228,331" transform="translate(-208.959 -288.909)"/><line class="a" x1="7.015" transform="translate(0 23.05)"/><path class="a" d="M213.009,316.017,209,312.009,213.009,308" transform="translate(-209 -288.959)"/><line class="a" x2="7.015" transform="translate(39.085 23.05)"/><path class="a" d="M251,316.017l4.009-4.009L251,308" transform="translate(-208.909 -288.959)"/><line class="a" x1="5.011" y1="5.011" transform="translate(6.013 6.013)"/><path class="a" d="M215,300.011V295h5.011" transform="translate(-208.987 -288.987)"/><line class="a" y1="5.011" x2="5.011" transform="translate(35.076 6.013)"/><path class="a" d="M249.011,300.011V295H244" transform="translate(-208.924 -288.987)"/><line class="a" x1="5.011" y2="5.011" transform="translate(6.013 35.076)"/><path class="a" d="M215,324v5.011h5.011" transform="translate(-208.987 -288.924)"/><line class="a" x2="5.011" y2="5.011" transform="translate(35.076 35.076)"/><path class="a" d="M249.011,324v5.011H244" transform="translate(-208.924 -288.924)"/></g><g transform="translate(217.672 2574.367)"><path class="b" d="M3.458,0A3.458,3.458,0,1,1,0,3.458,3.458,3.458,0,0,1,3.458,0Z" transform="translate(2.393)"/><path class="b" d="M5326.367,803.978s-.191-6.031-5.935-5.932-5.557,5.932-5.557,5.932Z" transform="translate(-5314.875 -790.327)"/></g></g></svg>