<svg xmlns="http://www.w3.org/2000/svg" width="41" height="41" viewBox="0 0 41 41"><defs><style>.a{fill:none;stroke:#5e6583;}</style></defs><g transform="translate(-251.438 -1026.776)"><g transform="translate(251.938 1027.276)"><path class="a" d="M512.846,303.46a2.076,2.076,0,0,0-.392-1.2,1.5,1.5,0,0,1-.287-.759,1.4,1.4,0,0,1,1.4-1.5h5.665a.769.769,0,0,0,.769-.769V283.077A3.077,3.077,0,0,0,516.923,280H500.769a.769.769,0,0,0-.769.769v5.665a1.4,1.4,0,0,0,1.5,1.4,1.5,1.5,0,0,0,.759-.287,2.076,2.076,0,0,1,1.2-.392,2.892,2.892,0,0,1,0,5.691,2.079,2.079,0,0,1-1.22-.4,1.438,1.438,0,0,0-.838-.278h0a1.4,1.4,0,0,0-1.4,1.4v5.665a.769.769,0,0,0,.769.769h5.665a1.4,1.4,0,0,1,1.4,1.4h0a1.439,1.439,0,0,1-.278.838,2.079,2.079,0,0,0-.4,1.22,2.892,2.892,0,0,0,5.691,0Z" transform="translate(-480 -280)"/><path class="a" d="M426.5,552.846a2.075,2.075,0,0,0,1.2-.392,1.5,1.5,0,0,1,.759-.287,1.4,1.4,0,0,1,1.5,1.4v5.665a.769.769,0,0,0,.769.769h16.154a3.077,3.077,0,0,0,3.077-3.077V540.769a.769.769,0,0,0-.769-.769h-5.665a1.4,1.4,0,0,0-1.4,1.5,1.5,1.5,0,0,0,.287.759,2.075,2.075,0,0,1,.392,1.2,2.892,2.892,0,0,1-5.691,0,2.079,2.079,0,0,1,.4-1.22,1.438,1.438,0,0,0,.278-.838h0a1.4,1.4,0,0,0-1.4-1.4h-5.665a.769.769,0,0,0-.769.769v5.665a1.4,1.4,0,0,1-1.4,1.4h0a1.438,1.438,0,0,1-.838-.278,2.079,2.079,0,0,0-1.22-.4,2.892,2.892,0,0,0,0,5.691Z" transform="translate(-409.963 -520)"/><path class="a" d="M247.154,466.5a2.076,2.076,0,0,0,.392,1.2,1.5,1.5,0,0,1,.287.759,1.4,1.4,0,0,1-1.4,1.5h-5.665a.769.769,0,0,0-.769.769v16.154a3.077,3.077,0,0,0,3.077,3.077h16.154a.769.769,0,0,0,.769-.769v-5.665a1.4,1.4,0,0,0-1.5-1.4,1.5,1.5,0,0,0-.759.287,2.076,2.076,0,0,1-1.2.392,2.892,2.892,0,0,1,0-5.691,2.078,2.078,0,0,1,1.22.4,1.438,1.438,0,0,0,.838.278h0a1.4,1.4,0,0,0,1.4-1.4v-5.665a.769.769,0,0,0-.769-.769h-5.665a1.4,1.4,0,0,1-1.4-1.4h0a1.438,1.438,0,0,1,.278-.838,2.079,2.079,0,0,0,.4-1.22,2.892,2.892,0,0,0-5.691,0Z" transform="translate(-240 -449.963)"/></g></g></svg>