<svg xmlns="http://www.w3.org/2000/svg" width="61" height="61" viewBox="0 0 61 61"><defs><style>.a,.c{fill:none;}.a,.b,.c{stroke:#5e6583;}.a{stroke-linecap:round;stroke-linejoin:round;}.b{fill:#fff;stroke-miterlimit:10;fill-rule:evenodd;}</style></defs><g transform="translate(-431 -3253.5)"><g transform="translate(416.3 3241.872)"><path class="a" d="M85.7,85.824c0-.115,14.017,0,14.017,0s-.576-3.879-1.344-4.839c-.422-.538-1.958-.883-3.84-1-3-.23-6.836.115-7.527,1A12.135,12.135,0,0,0,85.7,85.747M89.579,73.8c.154-1.536,1.536-2.3,3.111-2.3s3,.768,3.111,2.3a8.7,8.7,0,0,1-.5,3.418,3.25,3.25,0,0,1-2.112,1.421,2.192,2.192,0,0,1-1,0,3.5,3.5,0,0,1-2.112-1.421,8.054,8.054,0,0,1-.5-3.418Z" transform="translate(-36.343 -29.528)"/><path class="a" d="M26.7,85.824c0-.115,14.017,0,14.017,0s-.576-3.879-1.344-4.839c-.422-.538-1.958-.883-3.84-1-2.957-.269-6.8.077-7.488,1a12.135,12.135,0,0,0-1.306,4.762M30.617,73.8c.154-1.536,1.536-2.3,3.111-2.3s3,.768,3.111,2.3a8.7,8.7,0,0,1-.5,3.418,3.25,3.25,0,0,1-2.112,1.421,2.192,2.192,0,0,1-1,0,3.5,3.5,0,0,1-2.112-1.421,8.054,8.054,0,0,1-.5-3.418Z" transform="translate(0 -29.528)"/><path class="b" d="M48.038,89.96c0-.192,20.276,0,20.276,0s-.806-5.607-1.92-7.028c-.614-.768-2.842-1.267-5.568-1.459-4.339-.307-9.869.154-10.906,1.459-.845,1.075-1.536,4.032-1.92,6.912M53.645,72.6c.23-2.227,2.266-3.3,4.531-3.3s4.3,1.114,4.531,3.3a11.879,11.879,0,0,1-.73,4.915,4.826,4.826,0,0,1-3.034,2.074,4.648,4.648,0,0,1-1.459,0,4.826,4.826,0,0,1-3.034-2.074A10.8,10.8,0,0,1,53.645,72.6Z" transform="translate(-13.12 -28.173)"/><path class="c" d="M50.92,22.481H66.127a1.729,1.729,0,0,1,1.882,1.574V38.11l-3.763-3.149H50.92A1.787,1.787,0,0,1,49,33.387v-9.37A1.758,1.758,0,0,1,50.92,22.481Z" transform="translate(-13.736 0)"/></g><rect class="a" width="60" height="60" rx="5" transform="translate(431.5 3254)"/></g></svg>