<svg xmlns="http://www.w3.org/2000/svg" width="61" height="61" viewBox="0 0 61 61"><defs><style>.a,.c{fill:#fff;}.b{fill:none;}.b,.c{stroke:#5e6583;}</style></defs><g transform="translate(-589.5 -2656.5)"><circle class="a" cx="5.984" cy="5.984" r="5.984" transform="translate(609.513 2666.173)"/><g transform="translate(590 2657)"><path class="b" d="M321.919,312H311.447a6.639,6.639,0,0,1,1.461,3.649,6.13,6.13,0,0,1-4.822,6.72,5.984,5.984,0,0,1-7.111-5.881,6.755,6.755,0,0,1,1.5-4.488H292v23.935a5.984,5.984,0,0,0,5.984,5.984h23.935" transform="translate(-292 -281.919)"/><path class="b" d="M312,312v10.471a6.639,6.639,0,0,1,3.649-1.461,6.13,6.13,0,0,1,6.72,4.822,5.984,5.984,0,0,1-5.881,7.112,6.751,6.751,0,0,1-4.488-1.5v10.47h23.935a5.984,5.984,0,0,0,5.984-5.984V312" transform="translate(-281.918 -281.919)"/><path class="c" d="M312,321.919h10.471a6.639,6.639,0,0,1-1.461-3.649,6.13,6.13,0,0,1,4.819-6.72,5.984,5.984,0,0,1,7.114,5.881,6.752,6.752,0,0,1-1.5,4.488h10.472V297.984A5.984,5.984,0,0,0,335.935,292H312" transform="translate(-281.918 -292)"/><path class="b" d="M321.919,321.919V311.447a6.639,6.639,0,0,1-3.649,1.461,6.13,6.13,0,0,1-6.72-4.822,5.984,5.984,0,0,1,5.881-7.111,6.755,6.755,0,0,1,4.488,1.5V292H297.984A5.984,5.984,0,0,0,292,297.984v23.935" transform="translate(-292 -292)"/></g></g></svg>